<svg width="600" height="600" viewBox="0 0 600 600" fill="none" xmlns="http://www.w3.org/2000/svg">
<path d="M580.71 471.792C586.005 477.093 589.687 483.788 591.325 491.099C592.964 498.41 592.494 506.036 589.968 513.09C589.461 514.507 588.872 515.893 588.204 517.242C585.713 522.271 582.181 526.713 577.842 530.273C573.504 533.834 568.458 536.431 563.04 537.894C561.463 538.323 559.86 538.65 558.24 538.872C556.439 539.12 554.622 539.245 552.804 539.244H58.092C48.8865 539.253 39.9691 536.035 32.8919 530.148C31.9439 529.348 31.0359 528.522 30.1679 527.67C29.6819 527.184 29.2019 526.686 28.7399 526.17C28.1399 525.516 27.5819 524.844 27.0419 524.148C25.3494 522.005 23.8873 519.691 22.6799 517.242C22.5179 516.918 22.3619 516.594 22.2119 516.264C21.7319 515.224 21.2999 514.166 20.9159 513.09C18.6435 506.796 18.0096 500.027 19.074 493.421C20.1383 486.815 22.8658 480.588 26.9999 475.326C27.5399 474.63 28.1099 473.958 28.6979 473.304C32.3993 469.174 36.9308 465.872 41.9961 463.614C47.0613 461.356 52.5462 460.193 58.092 460.2H109.608C110.256 460.2 110.898 460.176 111.534 460.128C113.166 460.011 114.784 459.738 116.364 459.312C117.743 458.943 119.088 458.458 120.384 457.86C123.2 456.568 125.764 454.787 127.956 452.598C130.371 450.192 132.285 447.332 133.59 444.183C134.895 441.034 135.563 437.659 135.558 434.25C135.56 433.268 135.504 432.286 135.39 431.31C134.797 426.143 132.666 421.274 129.274 417.332C125.882 413.39 121.384 410.557 116.364 409.2C114.784 408.775 113.166 408.502 111.534 408.384C110.898 408.336 110.256 408.312 109.608 408.312H101.52C97.0158 408.316 92.5255 407.813 88.134 406.812H88.092C87.99 406.812 87.888 406.77 87.786 406.74C87.45 406.668 87.1199 406.584 86.7899 406.5L86.298 406.374C85.866 406.26 85.4339 406.146 85.0079 406.02C84.5819 405.894 84.288 405.81 83.934 405.696C81.2412 404.887 78.6104 403.884 76.062 402.696C75.498 402.432 74.934 402.162 74.382 401.874C73.47 401.412 72.582 400.932 71.694 400.422C70.034 399.474 68.434 398.446 66.894 397.338C65.598 396.42 64.344 395.448 63.126 394.434C61.734 393.274 60.398 392.054 59.118 390.774C48.6302 380.335 42.3875 366.377 41.5979 351.6C41.5739 351.156 41.5559 350.712 41.5439 350.268C41.5439 349.614 41.5079 348.954 41.5079 348.3C41.5079 348.012 41.5079 347.7 41.5079 347.442C41.5404 345.034 41.7168 342.629 42.0359 340.242C43.1357 332.08 45.9071 324.232 50.177 317.189C54.4468 310.146 60.1234 304.06 66.852 299.31C68.324 298.262 69.842 297.284 71.406 296.376C71.496 296.322 71.586 296.268 71.682 296.22C74.3724 294.669 77.1811 293.333 80.082 292.224C81.342 291.738 82.62 291.3 83.916 290.898C85.212 290.496 86.6699 290.112 88.0739 289.794C92.4787 288.786 96.9833 288.279 101.502 288.282H145.698C151.184 288.279 156.533 286.575 161.01 283.404C162.22 282.542 163.356 281.581 164.406 280.53C168.994 275.96 171.742 269.864 172.128 263.4C172.158 262.89 172.176 262.374 172.176 261.852C172.175 257.887 171.283 253.972 169.566 250.398C167.85 246.824 165.352 243.68 162.258 241.2C161.856 240.876 161.448 240.6 161.028 240.276C159.521 239.198 157.902 238.287 156.198 237.558C155.784 237.372 155.364 237.204 154.938 237.048C151.988 235.948 148.864 235.387 145.716 235.392H64.968C57.5072 235.399 50.1051 234.074 43.1099 231.48C40.6431 230.567 38.2381 229.495 35.9099 228.27C34.8779 227.73 33.8639 227.164 32.8679 226.572C31.4479 225.728 30.0639 224.828 28.7159 223.872C28.1159 223.464 27.5759 223.05 27.0179 222.624C25.348 221.351 23.7458 219.991 22.2179 218.55C21.6779 218.052 21.1499 217.542 20.6279 217.02C12.1006 208.516 6.2071 197.733 3.65394 185.964C3.58194 185.648 3.51594 185.33 3.45594 185.01C3.23994 183.954 3.05394 182.892 2.89794 181.812C2.45382 178.772 2.23124 175.704 2.23194 172.632C2.23194 172.392 2.23194 172.152 2.23194 171.912C2.3725 157.617 7.41305 143.802 16.5119 132.774C17.0759 132.09 17.6579 131.412 18.2519 130.752C19.0079 129.9 19.7939 129.072 20.5979 128.268C21.1199 127.746 21.6479 127.236 22.1879 126.738L22.3439 126.594C22.7939 126.174 23.2439 125.766 23.7059 125.364C24.7779 124.424 25.8819 123.524 27.0179 122.664C27.5759 122.238 28.1399 121.824 28.7159 121.416C29.2919 121.008 29.7599 120.69 30.2879 120.336C31.1339 119.772 31.9919 119.226 32.8679 118.71L33.2939 118.458C34.1519 117.954 35.0279 117.468 35.9099 117.012C38.237 115.788 40.6422 114.717 43.1099 113.808C50.1031 111.206 57.5063 109.879 64.968 109.89C65.6013 109.89 66.2342 109.856 66.864 109.788C68.5157 109.609 70.1327 109.191 71.664 108.546C75.8387 106.82 79.184 103.545 81 99.4084C81.7107 97.7859 82.1681 96.0638 82.3559 94.3024C82.4183 93.7506 82.4504 93.1957 82.452 92.6404C82.452 92.5624 82.452 92.4844 82.452 92.4064V79.9204C82.4526 77.0354 82.871 74.1656 83.694 71.4004C83.772 71.1424 83.85 70.8844 83.934 70.6324C85.7499 65.0577 89.163 60.1391 93.7495 56.4869C98.3361 52.8347 103.894 50.6099 109.734 50.0885C110.334 50.0345 110.934 49.9985 111.534 49.9805H112.428H288.228C288.894 49.9805 289.548 49.9805 290.202 50.0465C291.829 50.1468 293.445 50.3836 295.032 50.7545C300.263 51.9738 305.069 54.579 308.946 58.2965C309.108 58.4465 309.264 58.6025 309.42 58.7585C314.802 64.1287 317.933 71.3494 318.174 78.9484V79.9504C318.174 79.9504 318.174 80.5504 318.174 80.8024C318.214 82.2106 318.354 83.6142 318.594 85.0024C318.642 85.2964 318.702 85.6024 318.756 85.8844C318.87 86.4424 319.002 87.0004 319.14 87.5464C319.601 89.3014 320.222 91.0105 320.994 92.6524C321.258 93.2164 321.54 93.7744 321.834 94.3144C321.972 94.5724 322.116 94.8244 322.266 95.0764C323.165 96.6148 324.201 98.0687 325.362 99.4204C326.217 100.422 327.139 101.364 328.122 102.24C328.56 102.636 329.01 103.014 329.466 103.386C331.139 104.712 332.95 105.854 334.866 106.794C335.244 106.986 335.628 107.166 336.018 107.34C339.842 109.036 343.979 109.909 348.162 109.902H435.846C437.568 109.902 439.266 109.992 440.946 110.16C447.011 110.778 452.909 112.509 458.346 115.266C462.145 117.188 465.683 119.585 468.876 122.4C469.164 122.658 469.446 122.91 469.728 123.174C470.01 123.438 470.202 123.612 470.43 123.84C470.952 124.338 471.456 124.842 471.936 125.364C472.128 125.55 472.302 125.742 472.476 125.934C472.5 125.949 472.521 125.97 472.536 125.994C472.722 126.192 472.902 126.39 473.07 126.594C473.238 126.798 473.502 127.074 473.706 127.32C474.006 127.662 474.306 128.01 474.582 128.364C474.798 128.622 475.008 128.886 475.182 129.156C475.356 129.426 475.584 129.672 475.782 129.936C475.98 130.2 476.19 130.476 476.382 130.752C476.47 130.868 476.554 130.982 476.634 131.094C477.024 131.646 477.402 132.204 477.768 132.774C478.008 133.152 478.248 133.53 478.482 133.914C478.89 134.586 479.28 135.27 479.682 135.96C480.222 136.964 480.73 137.984 481.206 139.02C481.634 139.944 482.034 140.884 482.406 141.84C483.051 143.508 483.602 145.211 484.056 146.94C484.308 147.87 484.53 148.812 484.722 149.76C485.068 151.447 485.322 153.152 485.484 154.866C485.646 156.491 485.726 158.123 485.724 159.756V200.742C485.719 205.036 486.561 209.289 488.201 213.258C489.841 217.226 492.247 220.833 495.282 223.871C498.317 226.909 501.92 229.319 505.887 230.963C509.854 232.608 514.106 233.454 518.4 233.454H568.278C573.199 233.457 578.041 234.695 582.36 237.054C584.46 238.2 586.414 239.594 588.18 241.206C588.51 241.506 588.834 241.806 589.146 242.13C589.879 242.864 590.574 243.635 591.228 244.44C595.475 249.694 597.792 256.246 597.792 263.001C597.792 269.757 595.475 276.308 591.228 281.562C590.574 282.367 589.879 283.138 589.146 283.872C584.557 288.477 578.571 291.431 572.124 292.272C570.849 292.441 569.564 292.525 568.278 292.524C566.514 292.525 564.758 292.775 563.064 293.268C561.365 293.769 559.748 294.515 558.264 295.482C557.802 295.776 557.358 296.082 556.926 296.424C554.699 298.156 552.897 300.375 551.659 302.91C550.42 305.446 549.777 308.231 549.78 311.052V370.29C549.795 379.098 546.74 387.636 541.14 394.434C540.352 395.4 539.515 396.325 538.632 397.206C536.895 398.944 534.992 400.508 532.95 401.874C532.536 402.162 532.116 402.432 531.69 402.696C531.09 403.068 530.49 403.422 529.848 403.758L528.972 404.22C528.899 404.263 528.822 404.301 528.744 404.334C528.45 404.484 528.144 404.628 527.856 404.766C527.824 404.789 527.787 404.806 527.748 404.814C527.418 404.97 527.088 405.12 526.758 405.258C526.428 405.396 526.05 405.558 525.696 405.696C524.591 406.14 523.463 406.527 522.318 406.854C521.039 407.226 519.741 407.531 518.43 407.766C516.833 408.047 515.22 408.227 513.6 408.306C513 408.306 512.346 408.354 511.716 408.354C505.34 408.351 499.186 410.695 494.428 414.939C489.67 419.183 486.64 425.029 485.916 431.364C485.802 432.34 485.746 433.322 485.748 434.304C485.761 441.171 488.496 447.753 493.353 452.608C498.211 457.462 504.795 460.192 511.662 460.2H552.774C554.593 460.198 556.409 460.324 558.21 460.578C559.829 460.798 561.433 461.123 563.01 461.55C563.544 461.694 564.072 461.85 564.6 462.012C570.681 463.923 576.209 467.279 580.71 471.792Z" fill="url(#paint0_linear_274_5569)"/>
<path d="M26.9997 122.664V222.6C25.3297 221.327 23.7275 219.967 22.1997 218.526V126.726L22.3557 126.582C22.8057 126.162 23.2557 125.754 23.7177 125.352C24.7897 124.42 25.8837 123.524 26.9997 122.664Z" fill="#EFF1FD"/>
<path d="M22.1999 483.21C23.4845 480.403 25.0956 477.756 26.9999 475.326V524.148C25.3074 522.006 23.8453 519.691 22.6379 517.242C22.4759 516.918 22.3199 516.594 22.1699 516.264L22.1999 483.21Z" fill="#EFF1FD"/>
<path d="M71.694 108.546V235.368H66.894V109.8C68.5464 109.617 70.1634 109.195 71.694 108.546Z" fill="#EFF1FD"/>
<path d="M71.4 296.4C71.49 296.346 71.58 296.292 71.676 296.244V400.386C70.016 399.438 68.416 398.41 66.876 397.302V299.322C68.34 298.274 69.848 297.3 71.4 296.4Z" fill="#EFF1FD"/>
<path d="M66.8638 460.218H71.6938V539.244H66.8638V460.218Z" fill="#EFF1FD"/>
<path d="M116.364 49.9502V235.35H111.534V49.9502H112.428H116.364Z" fill="#EFF1FD"/>
<path d="M111.534 288.294H116.364V409.2C114.783 408.775 113.166 408.502 111.534 408.384V288.294Z" fill="#EFF1FD"/>
<path d="M111.534 460.146C113.166 460.029 114.784 459.756 116.364 459.33V539.244H111.534V460.146Z" fill="#EFF1FD"/>
<path d="M161.028 49.9502V240.252C159.521 239.174 157.902 238.263 156.198 237.534V49.9502H161.028Z" fill="#EFF1FD"/>
<path d="M156.198 286.128C157.899 285.397 159.518 284.488 161.028 283.416V539.244H156.198V286.128Z" fill="#EFF1FD"/>
<path d="M200.868 49.9502H205.698V539.244H200.868V49.9502Z" fill="#EFF1FD"/>
<path d="M245.538 49.9502H250.368V539.244H245.538V49.9502Z" fill="#EFF1FD"/>
<path d="M295.032 50.7246V539.244H290.202V50.0166C291.829 50.1169 293.445 50.3538 295.032 50.7246Z" fill="#EFF1FD"/>
<path d="M339.702 108.678V539.244H334.902V106.8C335.28 106.992 335.664 107.172 336.054 107.346C337.239 107.869 338.458 108.314 339.702 108.678Z" fill="#EFF1FD"/>
<path d="M379.542 109.891H384.372V539.245H379.542V109.891Z" fill="#EFF1FD"/>
<path d="M424.206 109.891H429.036V539.245H424.206V109.891Z" fill="#EFF1FD"/>
<path d="M473.705 127.32V539.245H468.905V122.4C469.193 122.658 469.475 122.91 469.757 123.174C470.039 123.438 470.231 123.612 470.459 123.84C470.981 124.338 471.485 124.842 471.965 125.364C472.157 125.55 472.331 125.742 472.505 125.934C472.53 125.95 472.55 125.97 472.565 125.994C472.751 126.192 472.931 126.39 473.099 126.594C473.267 126.798 473.501 127.074 473.705 127.32Z" fill="#EFF1FD"/>
<path d="M518.4 233.454V407.73C516.803 408.011 515.19 408.192 513.57 408.27V233.07C515.168 233.317 516.783 233.445 518.4 233.454Z" fill="#EFF1FD"/>
<path d="M513.546 460.218H518.376V539.244H513.546V460.218Z" fill="#EFF1FD"/>
<path d="M563.04 233.454V293.232C561.341 293.733 559.724 294.479 558.24 295.446V233.454H563.04Z" fill="#EFF1FD"/>
<path d="M563.04 461.568V537.894C561.463 538.323 559.859 538.65 558.24 538.872V460.596C559.859 460.816 561.462 461.14 563.04 461.568Z" fill="#EFF1FD"/>
<path d="M52.344 550.051H86.22C89.1361 550.051 91.5 547.687 91.5 544.771V544.765C91.5 541.849 89.1361 539.485 86.22 539.485H52.344C49.428 539.485 47.064 541.849 47.064 544.765V544.771C47.064 547.687 49.428 550.051 52.344 550.051Z" fill="#7986BF"/>
<path d="M101.077 550.051H576.481C579.397 550.051 581.761 547.687 581.761 544.771V544.765C581.761 541.849 579.397 539.485 576.481 539.485H101.077C98.1609 539.485 95.797 541.849 95.797 544.765V544.771C95.797 547.687 98.1609 550.051 101.077 550.051Z" fill="#7986BF"/>
<path d="M127.356 83.5078H155.016C155.379 83.5078 155.739 83.5794 156.075 83.7184C156.41 83.8574 156.715 84.0611 156.972 84.318C157.229 84.5748 157.432 84.8797 157.571 85.2153C157.71 85.5509 157.782 85.9106 157.782 86.2738V152.55H127.356V83.5078Z" fill="#6675AD"/>
<path d="M125.4 83.5078H153.06V152.55H122.61V86.2738C122.61 85.9106 122.681 85.5509 122.82 85.2153C122.959 84.8797 123.163 84.5748 123.42 84.318C123.677 84.0611 123.982 83.8574 124.317 83.7184C124.653 83.5794 125.013 83.5078 125.376 83.5078H125.4Z" fill="#7986BF"/>
<path d="M137.406 112.134C141.442 112.134 144.714 108.862 144.714 104.826C144.714 100.789 141.442 97.5176 137.406 97.5176C133.37 97.5176 130.098 100.789 130.098 104.826C130.098 108.862 133.37 112.134 137.406 112.134Z" fill="#6675AD"/>
<path d="M137.406 108.144C139.238 108.144 140.724 106.658 140.724 104.826C140.724 102.993 139.238 101.508 137.406 101.508C135.573 101.508 134.088 102.993 134.088 104.826C134.088 106.658 135.573 108.144 137.406 108.144Z" fill="#F3F4FE"/>
<path d="M137.406 150.648C143.967 150.648 149.286 145.329 149.286 138.768C149.286 132.207 143.967 126.888 137.406 126.888C130.845 126.888 125.526 132.207 125.526 138.768C125.526 145.329 130.845 150.648 137.406 150.648Z" fill="#6675AD"/>
<path d="M137.406 144.156C140.382 144.156 142.794 141.744 142.794 138.768C142.794 135.792 140.382 133.38 137.406 133.38C134.43 133.38 132.018 135.792 132.018 138.768C132.018 141.744 134.43 144.156 137.406 144.156Z" fill="#F3F4FE"/>
<path d="M186.984 83.5078H214.644C215.008 83.5078 215.367 83.5794 215.703 83.7184C216.038 83.8574 216.343 84.0611 216.6 84.318C216.857 84.5748 217.061 84.8797 217.2 85.2153C217.339 85.5509 217.41 85.9106 217.41 86.2738V152.55H186.984V83.5078Z" fill="#6675AD"/>
<path d="M185.004 83.5078H212.664V152.55H182.238V86.2738C182.238 85.9106 182.309 85.5509 182.448 85.2153C182.587 84.8797 182.791 84.5748 183.048 84.318C183.305 84.0611 183.61 83.8574 183.945 83.7184C184.281 83.5794 184.641 83.5078 185.004 83.5078Z" fill="#7986BF"/>
<path d="M197.034 112.134C201.07 112.134 204.342 108.862 204.342 104.826C204.342 100.789 201.07 97.5176 197.034 97.5176C192.998 97.5176 189.726 100.789 189.726 104.826C189.726 108.862 192.998 112.134 197.034 112.134Z" fill="#6675AD"/>
<path d="M197.034 108.144C198.866 108.144 200.352 106.658 200.352 104.826C200.352 102.993 198.866 101.508 197.034 101.508C195.201 101.508 193.716 102.993 193.716 104.826C193.716 106.658 195.201 108.144 197.034 108.144Z" fill="#F3F4FE"/>
<path d="M197.034 150.648C203.595 150.648 208.914 145.329 208.914 138.768C208.914 132.207 203.595 126.888 197.034 126.888C190.473 126.888 185.154 132.207 185.154 138.768C185.154 145.329 190.473 150.648 197.034 150.648Z" fill="#6675AD"/>
<path d="M197.034 144.156C200.01 144.156 202.422 141.744 202.422 138.768C202.422 135.792 200.01 133.38 197.034 133.38C194.058 133.38 191.646 135.792 191.646 138.768C191.646 141.744 194.058 144.156 197.034 144.156Z" fill="#F3F4FE"/>
<path d="M79.8901 166.386H259.608L247.776 152.55H91.7281L79.8901 166.386Z" fill="#D2D6FA"/>
<path d="M225.948 166.386V184.962L213.336 193.836V166.386H225.948Z" fill="#D2D6FA"/>
<path d="M129.228 166.386V193.836L116.616 184.962V166.386H129.228Z" fill="#D2D6FA"/>
<path d="M116.616 166.386H129.228V172.128H116.616V166.386Z" fill="#969ECC"/>
<path d="M213.336 166.386H225.948V172.128H213.336V166.386Z" fill="#969ECC"/>
<path d="M389.976 163.59H458.442V240.474H389.976V163.59Z" fill="#D2D6FA"/>
<path d="M395.97 170.316H452.454V233.742H395.97V170.316Z" fill="#F3F4FE"/>
<path d="M412.716 191.034L427.866 218.988L400.878 220.782L412.716 191.034Z" fill="#D2D6FA"/>
<path d="M445.806 177.66L435.246 196.782L424.206 181.83L445.806 177.66Z" fill="#D2D6FA"/>
<path d="M444.15 205.908L441.936 219.108L432.516 212.712L444.15 205.908Z" fill="#D2D6FA"/>
<path d="M315.768 173.491C324.609 173.491 331.776 166.324 331.776 157.483C331.776 148.642 324.609 141.475 315.768 141.475C306.927 141.475 299.76 148.642 299.76 157.483C299.76 166.324 306.927 173.491 315.768 173.491Z" fill="#332D52"/>
<path d="M317.721 248.471C326.115 242.025 327.695 229.995 321.249 221.6C314.803 213.206 302.772 211.626 294.377 218.072L245.709 255.444C237.314 261.89 235.734 273.921 242.181 282.315C248.627 290.71 260.657 292.289 269.052 285.843L317.721 248.471Z" fill="#FAEEDE"/>
<path d="M257.442 289.806C268.801 289.806 278.01 280.597 278.01 269.238C278.01 257.879 268.801 248.67 257.442 248.67C246.083 248.67 236.874 257.879 236.874 269.238C236.874 280.597 246.083 289.806 257.442 289.806Z" fill="#F2E6D7"/>
<path d="M216.345 194.096L216.339 194.099C208.609 198.173 205.645 207.742 209.719 215.473L241.444 275.67C245.518 283.401 255.088 286.365 262.818 282.291L262.823 282.288C270.554 278.214 273.518 268.645 269.444 260.914L237.719 200.716C233.645 192.986 224.075 190.022 216.345 194.096Z" fill="#EF948C"/>
<path d="M216.317 220.573C224.26 224.02 233.493 220.376 236.939 212.435C240.386 204.493 236.741 195.261 228.798 191.814L216.221 186.356C208.278 182.909 199.045 186.552 195.599 194.494C192.152 202.435 195.797 211.668 203.74 215.115L216.317 220.573Z" fill="#EF948C"/>
<path d="M221.502 201.006C224.375 202.252 227.714 200.934 228.961 198.062C230.208 195.189 228.89 191.85 226.017 190.603L196.895 177.965C194.023 176.718 190.683 178.036 189.437 180.909C188.19 183.781 189.508 187.121 192.381 188.367L221.502 201.006Z" fill="#EF948C"/>
<path d="M223.551 199.987C225.284 202.596 228.803 203.306 231.412 201.573C234.02 199.841 234.73 196.322 232.998 193.713L223.229 179.004C221.496 176.395 217.977 175.685 215.369 177.418C212.76 179.15 212.05 182.669 213.782 185.278L223.551 199.987Z" fill="#EA8681"/>
<path d="M224.874 211.746C231.044 211.746 236.046 206.744 236.046 200.574C236.046 194.404 231.044 189.402 224.874 189.402C218.704 189.402 213.702 194.404 213.702 200.574C213.702 206.744 218.704 211.746 224.874 211.746Z" fill="#EA8681"/>
<path d="M317.721 248.471C326.115 242.025 327.695 229.995 321.249 221.6C314.803 213.206 302.772 211.626 294.377 218.072L245.709 255.444C237.314 261.89 235.734 273.921 242.181 282.315C248.627 290.71 260.657 292.289 269.052 285.843L317.721 248.471Z" fill="#F2E6D7"/>
<path d="M257.442 289.806C268.801 289.806 278.01 280.597 278.01 269.238C278.01 257.879 268.801 248.67 257.442 248.67C246.083 248.67 236.874 257.879 236.874 269.238C236.874 280.597 246.083 289.806 257.442 289.806Z" fill="#FAEEDE"/>
<path d="M216.345 194.096L216.339 194.099C208.609 198.173 205.645 207.742 209.719 215.473L241.444 275.67C245.518 283.401 255.088 286.365 262.818 282.291L262.823 282.288C270.554 278.214 273.518 268.645 269.444 260.914L237.719 200.716C233.645 192.986 224.075 190.022 216.345 194.096Z" fill="#EF948C"/>
<path d="M216.317 220.573C224.26 224.02 233.493 220.376 236.939 212.435C240.386 204.493 236.741 195.261 228.798 191.814L216.221 186.356C208.278 182.909 199.045 186.552 195.599 194.494C192.152 202.435 195.797 211.668 203.74 215.115L216.317 220.573Z" fill="#EF948C"/>
<path d="M195.6 194.478C196.162 193.187 196.892 191.977 197.772 190.878C196.652 194.557 196.926 198.521 198.543 202.01C200.161 205.5 203.007 208.272 206.538 209.796L208.068 210.456L214.026 213.042L218.37 221.28L244.242 270.378C245.466 272.702 247.249 274.685 249.431 276.148C251.612 277.611 254.123 278.509 256.737 278.76C259.352 279.011 261.988 278.608 264.408 277.587C266.828 276.566 268.956 274.958 270.6 272.91C269.687 275.911 267.903 278.573 265.474 280.558C263.046 282.543 260.082 283.761 256.96 284.059C253.837 284.357 250.696 283.72 247.936 282.229C245.177 280.739 242.922 278.462 241.458 275.688L211.248 218.352L203.754 215.1C201.862 214.284 200.15 213.103 198.716 211.624C197.282 210.145 196.154 208.398 195.396 206.482C194.638 204.566 194.267 202.519 194.302 200.459C194.337 198.4 194.778 196.367 195.6 194.478Z" fill="#EA8681"/>
<path d="M221.502 201.006C224.375 202.252 227.714 200.934 228.961 198.062C230.208 195.189 228.89 191.85 226.017 190.603L196.895 177.965C194.023 176.718 190.683 178.036 189.437 180.909C188.19 183.781 189.508 187.121 192.381 188.367L221.502 201.006Z" fill="#EF948C"/>
<path d="M223.551 199.988C225.284 202.597 228.803 203.307 231.412 201.574C234.02 199.842 234.73 196.323 232.998 193.714L223.229 179.005C221.496 176.396 217.977 175.686 215.369 177.419C212.76 179.151 212.05 182.67 213.782 185.279L223.551 199.988Z" fill="#EF948C"/>
<path d="M224.874 211.746C231.044 211.746 236.046 206.744 236.046 200.574C236.046 194.404 231.044 189.402 224.874 189.402C218.704 189.402 213.702 194.404 213.702 200.574C213.702 206.744 218.704 211.746 224.874 211.746Z" fill="#EF948C"/>
<path d="M316.842 268.422C333.431 268.422 346.878 254.974 346.878 238.386C346.878 221.797 333.431 208.35 316.842 208.35C300.254 208.35 286.806 221.797 286.806 238.386C286.806 254.974 300.254 268.422 316.842 268.422Z" fill="#F2E6D7"/>
<path d="M305.278 247.931L307.45 343.631C307.844 360.99 322.236 374.743 339.595 374.349L367.302 373.72C384.661 373.327 398.414 358.935 398.02 341.575L395.849 245.876C395.455 228.517 381.063 214.763 363.704 215.157L335.997 215.786C318.637 216.18 304.884 230.572 305.278 247.931Z" fill="#FAEEDE"/>
<path d="M292.555 237.061C292.377 228.166 295.74 219.564 301.904 213.149C308.068 206.733 316.529 203.029 325.424 202.851L375.902 201.841C384.798 201.663 393.399 205.026 399.815 211.19C406.231 217.355 409.935 225.815 410.113 234.71C410.258 241.977 408.971 249.202 406.324 255.971C403.677 262.741 399.723 268.923 394.687 274.164C389.652 279.406 383.633 283.604 376.974 286.519C370.316 289.434 363.149 291.01 355.882 291.155L348.994 291.293C334.318 291.585 320.128 286.035 309.543 275.865C298.959 265.695 292.848 251.737 292.555 237.061Z" fill="#FAEEDE"/>
<path d="M354.942 290.562H354.996C369.665 290.229 383.602 284.083 393.74 273.476C403.879 262.869 409.39 248.67 409.062 234C408.861 225.107 405.135 216.659 398.704 210.513C392.274 204.367 383.665 201.027 374.772 201.228L324.306 202.374C322 202.425 319.706 202.714 317.46 203.238L365.904 202.134H366.684C375.441 202.138 383.849 205.567 390.111 211.687C396.374 217.807 399.995 226.134 400.2 234.888C400.497 248.031 396.106 260.85 387.813 271.051C379.521 281.252 367.868 288.169 354.942 290.562Z" fill="#FFF7EE"/>
<path d="M332.61 177.857L333.258 206.441C333.349 210.722 335.115 214.796 338.176 217.789C341.238 220.782 345.351 222.455 349.632 222.449H350.004C352.155 222.4 354.275 221.928 356.244 221.059C358.212 220.19 359.989 218.942 361.475 217.385C362.961 215.829 364.125 213.995 364.901 211.989C365.678 209.982 366.051 207.842 366 205.691L365.784 195.899L365.352 177.113C365.256 172.835 363.489 168.763 360.429 165.771C357.368 162.779 353.258 161.104 348.978 161.105H348.6C344.259 161.209 340.137 163.032 337.139 166.173C334.141 169.314 332.512 173.516 332.61 177.857Z" fill="#EF948C"/>
<path d="M228.754 349.891L228.811 352.405C229.117 365.908 240.312 376.606 253.815 376.3L374.288 373.566C387.792 373.259 398.49 362.064 398.183 348.561L398.126 346.048C397.82 332.545 386.625 321.847 373.122 322.153L252.649 324.887C239.146 325.193 228.447 336.388 228.754 349.891Z" fill="#332D52"/>
<path d="M346.878 349.74V503.275H398.31V349.74C398.31 342.92 395.601 336.379 390.778 331.556C385.955 326.734 379.414 324.024 372.594 324.024C365.774 324.024 359.233 326.734 354.41 331.556C349.587 336.379 346.878 342.92 346.878 349.74Z" fill="#666DA2"/>
<path d="M346.878 349.74V503.275H360.252V373.104C360.254 368.641 361.417 364.255 363.627 360.378C365.837 356.5 369.018 353.265 372.858 350.989C376.697 348.713 381.062 347.475 385.525 347.397C389.988 347.319 394.393 348.404 398.31 350.544V349.74C398.31 342.92 395.601 336.379 390.778 331.556C385.955 326.734 379.414 324.024 372.594 324.024C365.774 324.024 359.233 326.734 354.41 331.556C349.587 336.379 346.878 342.92 346.878 349.74Z" fill="#555A8B"/>
<path d="M346.878 481.158V503.274H398.31V489.234L346.878 481.158Z" fill="#141334"/>
<path d="M176.826 486.048L222.672 504.426L227.85 491.004L278.34 360.203C279.556 357.052 280.139 353.691 280.056 350.314C279.973 346.937 279.226 343.61 277.857 340.521C276.488 337.433 274.524 334.645 272.077 332.315C269.631 329.986 266.75 328.161 263.598 326.945C260.446 325.73 257.086 325.147 253.709 325.229C250.332 325.312 247.004 326.06 243.916 327.428C240.827 328.797 238.039 330.761 235.71 333.208C233.38 335.654 231.556 338.536 230.34 341.687L183.03 464.316L176.844 480.318L176.826 486.048Z" fill="#332D52"/>
<path d="M207.819 525.116L171.833 511.223L179.444 491.51L215.43 505.402L207.819 525.116Z" fill="#EA8681"/>
<path d="M391.884 527.034H353.31V507.282H391.884V527.034Z" fill="#EF948C"/>
<path d="M332.61 177.858L333.258 206.442C333.289 207.942 333.527 209.43 333.966 210.864H335.166C341.073 210.867 346.903 209.517 352.207 206.917C357.512 204.317 362.15 200.536 365.766 195.864L365.334 177.078C365.238 172.799 363.471 168.728 360.411 165.736C357.35 162.744 353.24 161.069 348.96 161.07H348.6C346.447 161.122 344.326 161.597 342.357 162.468C340.389 163.34 338.611 164.591 337.126 166.15C335.641 167.71 334.478 169.546 333.703 171.555C332.928 173.564 332.557 175.706 332.61 177.858Z" fill="#EA8681"/>
<path d="M304.2 164.466C304.2 174.37 307.993 183.897 314.801 191.09C321.608 198.283 330.911 202.596 340.8 203.142C341.49 203.178 342.18 203.196 342.882 203.196C348.008 203.26 353.096 202.305 357.85 200.388C362.605 198.47 366.931 195.628 370.579 192.025C374.227 188.423 377.123 184.132 379.099 179.402C381.076 174.672 382.094 169.596 382.094 164.469C382.094 159.343 381.076 154.267 379.099 149.537C377.123 144.806 374.227 140.516 370.579 136.913C366.931 133.311 362.605 130.468 357.85 128.551C353.096 126.633 348.008 125.678 342.882 125.742C342.18 125.742 341.49 125.742 340.8 125.796C330.912 126.341 321.608 130.652 314.801 137.845C307.994 145.037 304.2 154.563 304.2 164.466Z" fill="#EF948C"/>
<path d="M326.946 174.918C326.947 176.053 327.173 177.177 327.609 178.225C328.046 179.273 328.685 180.225 329.49 181.026C329.688 181.224 329.898 181.41 330.09 181.584C331.639 182.859 333.585 183.553 335.592 183.546H335.946C338.114 183.536 340.2 182.714 341.791 181.24C343.382 179.767 344.362 177.751 344.538 175.59C344.538 175.35 344.538 175.11 344.538 174.87C344.54 174.647 344.497 174.426 344.413 174.22C344.328 174.014 344.204 173.827 344.046 173.67C343.726 173.355 343.295 173.18 342.846 173.184L328.554 173.22C328.117 173.237 327.705 173.424 327.404 173.741C327.104 174.059 326.939 174.481 326.946 174.918Z" fill="#962F4A"/>
<path d="M335.784 182.214C335.785 182.662 335.83 183.108 335.916 183.546H335.964C338.133 183.54 340.221 182.718 341.812 181.244C343.404 179.771 344.383 177.753 344.556 175.59C343.935 175.408 343.29 175.318 342.642 175.32C341.739 175.323 340.846 175.503 340.012 175.851C339.179 176.198 338.422 176.707 337.785 177.347C337.149 177.987 336.644 178.747 336.301 179.582C335.957 180.417 335.782 181.311 335.784 182.214Z" fill="#E1617F"/>
<path d="M328.932 173.238C329.004 174.936 331.626 176.286 334.842 176.28C338.058 176.274 340.668 174.906 340.728 173.208L328.932 173.238Z" fill="white"/>
<path d="M304.2 164.466C304.2 174.369 307.993 183.897 314.801 191.09C321.608 198.283 330.911 202.596 340.8 203.142C341.868 203.082 342.93 202.986 343.98 202.836C334.708 201.563 326.21 196.975 320.059 189.921C313.907 182.868 310.518 173.825 310.518 164.466C310.518 155.107 313.907 146.064 320.059 139.01C326.21 131.957 334.708 127.369 343.98 126.096C342.93 125.952 341.868 125.85 340.8 125.796C330.912 126.341 321.608 130.652 314.801 137.844C307.994 145.036 304.2 154.563 304.2 164.466Z" fill="#EA8681"/>
<path d="M374.88 233.352V233.754C375.258 246.546 383.79 256.686 394.206 256.842H394.878C405.714 256.56 414.318 245.574 414.078 232.314C413.958 224.97 412.398 219.03 408.078 214.74C405.495 212.358 402.424 210.566 399.078 209.49C396.346 208.68 393.449 208.606 390.678 209.274C381.534 211.482 374.688 221.508 374.88 233.352Z" fill="#FAEEDE"/>
<path d="M374.106 232.854V233.262C374.436 242.496 378.984 250.392 385.44 254.262C382.073 249.744 380.187 244.295 380.04 238.662C380.04 238.524 380.04 238.392 380.04 238.254C379.782 226.218 386.784 216.054 396.24 213.87C397.385 213.598 398.555 213.449 399.732 213.426C401.492 213.391 403.246 213.628 404.934 214.128C406.407 214.567 407.819 215.192 409.134 215.988C406.614 212.552 403.064 210.009 399 208.728C396.174 207.885 393.177 207.796 390.306 208.47C380.844 210.672 373.842 220.8 374.106 232.854Z" fill="#F2E6D7"/>
<path d="M416.914 226.389C412.452 216.791 401.055 212.627 391.457 217.088C381.86 221.549 377.696 232.947 382.157 242.544L408.022 298.189C412.483 307.787 423.88 311.951 433.478 307.489C443.076 303.028 447.24 291.631 442.778 282.033L416.914 226.389Z" fill="#FAEEDE"/>
<path d="M424.032 310.338C435.391 310.338 444.6 301.13 444.6 289.77C444.6 278.411 435.391 269.202 424.032 269.202C412.672 269.202 403.464 278.411 403.464 289.77C403.464 301.13 412.672 310.338 424.032 310.338Z" fill="#F2E6D7"/>
<path d="M416.914 226.389C412.452 216.791 401.055 212.627 391.457 217.088C381.86 221.549 377.696 232.947 382.157 242.544L408.022 298.189C412.483 307.787 423.88 311.951 433.478 307.489C443.076 303.028 447.24 291.631 442.778 282.033L416.914 226.389Z" fill="#FAEEDE"/>
<path d="M381.426 228.216C383.268 225.309 385.859 222.951 388.926 221.391C391.994 219.83 395.425 219.125 398.859 219.348C402.294 219.572 405.604 220.716 408.444 222.661C411.283 224.605 413.547 227.279 414.996 230.4L440.856 286.044C442.953 290.543 443.22 295.68 441.6 300.372C443.548 297.301 444.588 293.743 444.6 290.106C444.598 287.321 443.983 284.57 442.8 282.048L416.94 226.404C415.334 222.938 412.729 220.032 409.458 218.058C406.188 216.084 402.403 215.133 398.588 215.326C394.773 215.52 391.103 216.849 388.049 219.144C384.996 221.439 382.698 224.594 381.45 228.204L381.426 228.216Z" fill="#FFF7EE"/>
<path d="M424.032 310.338C435.391 310.338 444.6 301.13 444.6 289.77C444.6 278.411 435.391 269.202 424.032 269.202C412.672 269.202 403.464 278.411 403.464 289.77C403.464 301.13 412.672 310.338 424.032 310.338Z" fill="#F2E6D7"/>
<path d="M312.93 155.586H370.722C380.968 155.586 389.274 147.28 389.274 137.034C389.274 126.788 380.968 118.482 370.722 118.482H312.93C302.684 118.482 294.378 126.788 294.378 137.034C294.378 147.28 302.684 155.586 312.93 155.586Z" fill="#332D52"/>
<path d="M378.444 173.491C387.285 173.491 394.452 166.324 394.452 157.483C394.452 148.642 387.285 141.475 378.444 141.475C369.603 141.475 362.436 148.642 362.436 157.483C362.436 166.324 369.603 173.491 378.444 173.491Z" fill="#332D52"/>
<path d="M381.306 173.49C388.567 173.49 394.452 167.605 394.452 160.344C394.452 153.084 388.567 147.198 381.306 147.198C374.046 147.198 368.16 153.084 368.16 160.344C368.16 167.605 374.046 173.49 381.306 173.49Z" fill="#49466B"/>
<path d="M381.618 177.306C388.706 177.306 394.452 171.56 394.452 164.472C394.452 157.384 388.706 151.638 381.618 151.638C374.53 151.638 368.784 157.384 368.784 164.472C368.784 171.56 374.53 177.306 381.618 177.306Z" fill="#EF948C"/>
<path d="M380.61 168.468V160.464C380.61 160.264 380.658 160.067 380.749 159.889C380.841 159.711 380.973 159.557 381.135 159.44C381.297 159.323 381.485 159.246 381.682 159.215C381.88 159.185 382.082 159.201 382.272 159.264C383.376 159.618 384.339 160.313 385.023 161.249C385.706 162.186 386.074 163.315 386.074 164.475C386.074 165.634 385.706 166.763 385.023 167.7C384.339 168.637 383.376 169.332 382.272 169.686C382.081 169.747 381.877 169.763 381.679 169.731C381.48 169.699 381.292 169.62 381.13 169.501C380.968 169.382 380.836 169.226 380.746 169.047C380.655 168.867 380.609 168.669 380.61 168.468Z" fill="#EA8681"/>
<path d="M315.768 155.916C329.311 155.916 340.29 144.937 340.29 131.394C340.29 117.851 329.311 106.872 315.768 106.872C302.225 106.872 291.246 117.851 291.246 131.394C291.246 144.937 302.225 155.916 315.768 155.916Z" fill="#332D52"/>
<path d="M293.478 131.4C293.475 134.302 294.088 137.172 295.276 139.819C296.464 142.467 298.2 144.833 300.369 146.761C302.539 148.689 305.092 150.135 307.861 151.003C310.63 151.872 313.552 152.143 316.434 151.8C311.447 151.206 306.851 148.804 303.517 145.049C300.182 141.293 298.341 136.446 298.341 131.424C298.341 126.402 300.182 121.554 303.517 117.799C306.851 114.044 311.447 111.642 316.434 111.048C313.552 110.704 310.63 110.976 307.861 111.844C305.092 112.713 302.539 114.158 300.369 116.086C298.2 118.014 296.464 120.38 295.276 123.028C294.088 125.676 293.475 128.546 293.478 131.448V131.4Z" fill="#49466B"/>
<path d="M335.184 133.434C344.502 133.434 352.056 125.881 352.056 116.562C352.056 107.244 344.502 99.6904 335.184 99.6904C325.866 99.6904 318.312 107.244 318.312 116.562C318.312 125.881 325.866 133.434 335.184 133.434Z" fill="#332D52"/>
<path d="M316.434 161.437C316.477 162.615 316.975 163.731 317.824 164.55C318.673 165.368 319.806 165.826 320.985 165.826C322.164 165.826 323.297 165.368 324.146 164.55C324.995 163.731 325.493 162.615 325.536 161.437C325.537 161.081 325.495 160.726 325.41 160.381C325.174 161.377 324.608 162.264 323.805 162.898C323.002 163.533 322.009 163.878 320.985 163.878C319.962 163.878 318.968 163.533 318.165 162.898C317.362 162.264 316.797 161.377 316.56 160.381C316.475 160.726 316.433 161.081 316.434 161.437Z" fill="#332D52"/>
<path d="M341.436 161.437C341.436 162.645 341.916 163.803 342.77 164.657C343.624 165.511 344.782 165.991 345.99 165.991C347.198 165.991 348.356 165.511 349.21 164.657C350.064 163.803 350.544 162.645 350.544 161.437C350.545 161.081 350.503 160.726 350.418 160.381C350.179 161.375 349.612 162.26 348.809 162.894C348.006 163.527 347.013 163.871 345.99 163.871C344.967 163.871 343.974 163.527 343.171 162.894C342.368 162.26 341.801 161.375 341.562 160.381C341.477 160.726 341.435 161.081 341.436 161.437Z" fill="#332D52"/>
<path d="M346.884 536.844H395.892C395.892 530.345 393.311 524.112 388.715 519.517C384.12 514.921 377.887 512.34 371.388 512.34C364.889 512.34 358.657 514.921 354.061 519.517C349.466 524.112 346.884 530.345 346.884 536.844Z" fill="#332D52"/>
<path d="M346.884 536.844H358.2C358.203 531.51 359.879 526.31 362.992 521.978C366.104 517.646 370.497 514.399 375.552 512.694C372.035 512.095 368.429 512.27 364.986 513.207C361.542 514.144 358.345 515.82 355.616 518.119C352.887 520.418 350.692 523.284 349.184 526.518C347.676 529.752 346.891 533.276 346.884 536.844Z" fill="#49466B"/>
<path d="M340.098 532.41C340.1 532.89 340.148 533.368 340.242 533.838C340.288 534.067 340.346 534.294 340.416 534.516C340.484 534.737 340.564 534.953 340.656 535.164C340.919 535.796 341.275 536.384 341.712 536.91C341.856 537.084 342.006 537.246 342.168 537.408C342.327 537.568 342.496 537.718 342.672 537.858C343.937 538.903 345.526 539.473 347.166 539.472H399.462C400.853 539.475 402.189 538.934 403.186 537.964C404.182 536.994 404.76 535.673 404.794 534.282C404.829 532.892 404.318 531.544 403.37 530.525C402.423 529.507 401.115 528.9 399.726 528.834L360.522 526.2L347.508 525.336C346.337 525.276 345.169 525.511 344.112 526.02C343.805 526.17 343.508 526.341 343.224 526.53C342.947 526.715 342.681 526.916 342.426 527.13C342.174 527.358 341.939 527.605 341.724 527.868C341.58 528.042 341.442 528.222 341.316 528.408C340.862 529.077 340.529 529.821 340.332 530.604C340.271 530.829 340.223 531.058 340.188 531.288C340.129 531.659 340.099 532.035 340.098 532.41Z" fill="#332D52"/>
<path d="M340.098 532.41C340.1 532.89 340.148 533.368 340.242 533.838C340.285 534.068 340.343 534.294 340.416 534.516C340.481 534.737 340.561 534.954 340.656 535.164C340.919 535.795 341.275 536.384 341.712 536.91C341.856 537.084 342.006 537.246 342.168 537.408C342.327 537.568 342.496 537.718 342.672 537.858C343.937 538.902 345.526 539.473 347.166 539.472H363.936C362.367 539.473 360.843 538.953 359.602 537.992C358.362 537.031 357.477 535.686 357.086 534.166C356.694 532.647 356.82 531.041 357.442 529.601C358.064 528.161 359.148 526.969 360.522 526.212L347.508 525.348C346.337 525.288 345.169 525.523 344.112 526.032C343.499 526.328 342.931 526.71 342.426 527.166C342.174 527.394 341.939 527.641 341.724 527.904C341.578 528.076 341.441 528.256 341.316 528.444C340.862 529.113 340.529 529.856 340.332 530.64C340.271 530.865 340.223 531.094 340.188 531.324C340.131 531.683 340.1 532.046 340.098 532.41Z" fill="#49466B"/>
<path d="M209.836 531.297L170.459 514.745L176.7 499.899L209.677 513.761C211.374 514.475 212.718 515.833 213.414 517.538C214.11 519.242 214.1 521.154 213.386 522.851L209.836 531.297Z" fill="#49466B"/>
<path d="M140.706 507.521L185.886 526.511C188.404 520.52 188.439 513.774 185.984 507.757C183.528 501.739 178.782 496.944 172.791 494.426C166.8 491.908 160.054 491.873 154.036 494.329C148.019 496.784 143.224 501.53 140.706 507.521Z" fill="#332D52"/>
<path d="M140.706 507.523L153.402 512.857C155.454 507.972 159.034 503.884 163.606 501.206C168.177 498.527 173.494 497.403 178.758 498.001C175.804 495.6 172.332 493.921 168.616 493.095C164.9 492.27 161.043 492.321 157.351 493.245C153.658 494.169 150.232 495.94 147.342 498.418C144.453 500.897 142.181 504.014 140.706 507.523Z" fill="#49466B"/>
<path d="M212.826 529.147L147.924 498.085C147.061 497.672 146.123 497.439 145.167 497.4C144.211 497.36 143.258 497.515 142.363 497.855C141.469 498.195 140.653 498.713 139.965 499.377C139.277 500.042 138.731 500.839 138.36 501.721C138 502.577 137.812 503.495 137.806 504.423C137.801 505.352 137.979 506.272 138.329 507.132C138.68 507.992 139.196 508.774 139.849 509.434C140.502 510.094 141.278 510.619 142.134 510.979L208.464 538.861C209.766 539.407 211.231 539.415 212.538 538.882C213.846 538.348 214.888 537.318 215.436 536.017C215.966 534.756 215.991 533.339 215.505 532.06C215.019 530.781 214.06 529.738 212.826 529.147Z" fill="#332D52"/>
<path d="M138.36 501.725C137.635 503.453 137.624 505.398 138.332 507.133C139.04 508.868 140.407 510.25 142.134 510.977L157.59 517.475C156.107 516.852 154.881 515.741 154.115 514.326C153.349 512.911 153.089 511.277 153.377 509.694C153.665 508.111 154.485 506.674 155.7 505.62C156.916 504.566 158.455 503.959 160.062 503.897L147.93 498.083C147.067 497.67 146.128 497.436 145.171 497.397C144.214 497.357 143.26 497.512 142.365 497.853C141.47 498.193 140.653 498.712 139.965 499.378C139.276 500.044 138.731 500.842 138.36 501.725Z" fill="#49466B"/>
<path d="M424.038 318.714L428.088 330.258L435.21 350.592L501.414 539.502H516.18L465.432 350.592L459.972 330.258L456.87 318.714H424.038Z" fill="#441242"/>
<path d="M428.088 330.258L435.21 350.592H465.432L459.972 330.258H428.088Z" fill="#2F073A"/>
<path d="M212.556 318.714L208.506 330.258L201.384 350.592L135.18 539.502H120.414L171.162 350.592L176.622 330.258L179.724 318.714H212.556Z" fill="#441242"/>
<path d="M208.506 330.258L201.384 350.592H171.162L176.622 330.258H208.506Z" fill="#2F073A"/>
<path d="M498.307 339.048H146.605C144.272 339.048 142.035 338.121 140.385 336.472C138.736 334.822 137.809 332.585 137.809 330.252V318.72H507.109V330.246C507.11 331.402 506.883 332.547 506.44 333.615C505.998 334.683 505.35 335.654 504.533 336.472C503.715 337.289 502.744 337.937 501.676 338.379C500.608 338.822 499.463 339.049 498.307 339.048Z" fill="#441242"/>
<path d="M101.519 324.144H543.389C547.843 324.144 551.453 320.533 551.453 316.08C551.453 311.626 547.843 308.016 543.389 308.016H101.519C97.0654 308.016 93.455 311.626 93.455 316.08C93.455 320.533 97.0654 324.144 101.519 324.144Z" fill="#D8BA9F"/>
<path d="M93.4561 316.08C93.4576 318.218 94.3078 320.268 95.8197 321.78C97.3317 323.292 99.3818 324.142 101.52 324.144H543.39C545.529 324.144 547.58 323.294 549.092 321.782C550.605 320.27 551.454 318.219 551.454 316.08C551.456 315.128 551.288 314.183 550.956 313.29C550.385 314.837 549.354 316.171 548.001 317.113C546.648 318.055 545.039 318.559 543.39 318.558H101.52C100.461 318.559 99.4121 318.351 98.4339 317.946C97.4556 317.54 96.5673 316.945 95.8201 316.194C94.9926 315.376 94.3573 314.384 93.9601 313.29C93.6265 314.182 93.4558 315.127 93.4561 316.08Z" fill="#C89F87"/>
<path d="M493.729 334.368C495.376 334.368 496.711 333.033 496.711 331.386C496.711 329.739 495.376 328.404 493.729 328.404C492.082 328.404 490.747 329.739 490.747 331.386C490.747 333.033 492.082 334.368 493.729 334.368Z" fill="#D8BA9F"/>
<path d="M493.08 335.22C495.088 335.22 496.716 333.592 496.716 331.584C496.716 329.576 495.088 327.948 493.08 327.948C491.072 327.948 489.444 329.576 489.444 331.584C489.444 333.592 491.072 335.22 493.08 335.22Z" fill="#2F073A"/>
<path d="M493.729 334.368C495.376 334.368 496.711 333.033 496.711 331.386C496.711 329.739 495.376 328.404 493.729 328.404C492.082 328.404 490.747 329.739 490.747 331.386C490.747 333.033 492.082 334.368 493.729 334.368Z" fill="#D8BA9F"/>
<path d="M490.747 331.386C490.747 332.181 491.063 332.944 491.625 333.507C492.188 334.07 492.951 334.386 493.747 334.386H494.059C493.348 334.279 492.699 333.921 492.23 333.377C491.76 332.832 491.502 332.138 491.502 331.419C491.502 330.7 491.76 330.005 492.23 329.461C492.699 328.916 493.348 328.558 494.059 328.452C493.955 328.446 493.85 328.446 493.747 328.452C492.962 328.452 492.209 328.759 491.648 329.307C491.088 329.855 490.764 330.602 490.747 331.386Z" fill="#C89F87"/>
<path d="M493.728 333C493.879 333.048 494.037 333.073 494.196 333.072C494.647 333.072 495.081 332.893 495.4 332.573C495.72 332.253 495.9 331.82 495.9 331.368C495.9 330.916 495.72 330.483 495.4 330.163C495.081 329.844 494.647 329.664 494.196 329.664C494.037 329.664 493.879 329.688 493.728 329.736C494.085 329.834 494.401 330.047 494.626 330.342C494.851 330.636 494.973 330.997 494.973 331.368C494.973 331.739 494.851 332.1 494.626 332.395C494.401 332.689 494.085 332.902 493.728 333Z" fill="#F5EAE4"/>
<path d="M477.047 334.368C478.694 334.368 480.029 333.033 480.029 331.386C480.029 329.739 478.694 328.404 477.047 328.404C475.401 328.404 474.065 329.739 474.065 331.386C474.065 333.033 475.401 334.368 477.047 334.368Z" fill="#D8BA9F"/>
<path d="M476.4 335.22C478.408 335.22 480.036 333.592 480.036 331.584C480.036 329.576 478.408 327.948 476.4 327.948C474.392 327.948 472.764 329.576 472.764 331.584C472.764 333.592 474.392 335.22 476.4 335.22Z" fill="#2F073A"/>
<path d="M477.047 334.368C478.694 334.368 480.029 333.033 480.029 331.386C480.029 329.739 478.694 328.404 477.047 328.404C475.401 328.404 474.065 329.739 474.065 331.386C474.065 333.033 475.401 334.368 477.047 334.368Z" fill="#D8BA9F"/>
<path d="M474.073 331.386C474.073 332.182 474.389 332.945 474.951 333.507C475.514 334.07 476.277 334.386 477.073 334.386H477.385C476.674 334.28 476.025 333.922 475.556 333.377C475.087 332.833 474.829 332.138 474.829 331.419C474.829 330.7 475.087 330.005 475.556 329.461C476.025 328.916 476.674 328.558 477.385 328.452C477.281 328.446 477.177 328.446 477.073 328.452C476.288 328.452 475.535 328.759 474.974 329.307C474.414 329.855 474.09 330.602 474.073 331.386Z" fill="#C89F87"/>
<path d="M477.048 333C477.199 333.048 477.357 333.073 477.516 333.072C477.968 333.072 478.401 332.893 478.721 332.573C479.04 332.253 479.22 331.82 479.22 331.368C479.22 330.916 479.04 330.483 478.721 330.163C478.401 329.844 477.968 329.664 477.516 329.664C477.357 329.664 477.199 329.688 477.048 329.736C477.406 329.834 477.721 330.047 477.946 330.342C478.171 330.636 478.293 330.997 478.293 331.368C478.293 331.739 478.171 332.1 477.946 332.395C477.721 332.689 477.406 332.902 477.048 333Z" fill="#F5EAE4"/>
<path d="M152.79 334.368C154.437 334.368 155.772 333.033 155.772 331.386C155.772 329.739 154.437 328.404 152.79 328.404C151.143 328.404 149.808 329.739 149.808 331.386C149.808 333.033 151.143 334.368 152.79 334.368Z" fill="#D8BA9F"/>
<path d="M153.438 335.22C155.446 335.22 157.074 333.592 157.074 331.584C157.074 329.576 155.446 327.948 153.438 327.948C151.43 327.948 149.802 329.576 149.802 331.584C149.802 333.592 151.43 335.22 153.438 335.22Z" fill="#2F073A"/>
<path d="M152.79 334.368C154.437 334.368 155.772 333.033 155.772 331.386C155.772 329.739 154.437 328.404 152.79 328.404C151.143 328.404 149.808 329.739 149.808 331.386C149.808 333.033 151.143 334.368 152.79 334.368Z" fill="#D8BA9F"/>
<path d="M155.772 331.386C155.772 332.181 155.456 332.944 154.893 333.507C154.331 334.07 153.568 334.386 152.772 334.386H152.46C153.171 334.279 153.82 333.921 154.289 333.377C154.758 332.832 155.016 332.138 155.016 331.419C155.016 330.7 154.758 330.005 154.289 329.461C153.82 328.916 153.171 328.558 152.46 328.452C152.564 328.446 152.668 328.446 152.772 328.452C153.556 328.452 154.31 328.759 154.87 329.307C155.431 329.855 155.755 330.602 155.772 331.386Z" fill="#C89F87"/>
<path d="M152.79 333C152.639 333.048 152.481 333.073 152.322 333.072C151.87 333.072 151.437 332.893 151.117 332.573C150.798 332.253 150.618 331.82 150.618 331.368C150.618 330.916 150.798 330.483 151.117 330.163C151.437 329.844 151.87 329.664 152.322 329.664C152.481 329.664 152.639 329.688 152.79 329.736C152.436 329.838 152.124 330.052 151.903 330.347C151.681 330.641 151.561 331 151.561 331.368C151.561 331.737 151.681 332.095 151.903 332.39C152.124 332.684 152.436 332.898 152.79 333Z" fill="#F5EAE4"/>
<path d="M169.47 334.368C171.117 334.368 172.452 333.033 172.452 331.386C172.452 329.739 171.117 328.404 169.47 328.404C167.823 328.404 166.488 329.739 166.488 331.386C166.488 333.033 167.823 334.368 169.47 334.368Z" fill="#D8BA9F"/>
<path d="M170.118 335.22C172.126 335.22 173.754 333.592 173.754 331.584C173.754 329.576 172.126 327.948 170.118 327.948C168.11 327.948 166.482 329.576 166.482 331.584C166.482 333.592 168.11 335.22 170.118 335.22Z" fill="#2F073A"/>
<path d="M169.47 334.368C171.117 334.368 172.452 333.033 172.452 331.386C172.452 329.739 171.117 328.404 169.47 328.404C167.823 328.404 166.488 329.739 166.488 331.386C166.488 333.033 167.823 334.368 169.47 334.368Z" fill="#D8BA9F"/>
<path d="M172.446 331.386C172.446 332.181 172.13 332.944 171.568 333.507C171.005 334.07 170.242 334.386 169.446 334.386H169.134C169.845 334.279 170.494 333.921 170.963 333.377C171.432 332.832 171.691 332.138 171.691 331.419C171.691 330.7 171.432 330.005 170.963 329.461C170.494 328.916 169.845 328.558 169.134 328.452C169.238 328.446 169.342 328.446 169.446 328.452C170.231 328.452 170.984 328.759 171.545 329.307C172.105 329.855 172.429 330.602 172.446 331.386Z" fill="#C89F87"/>
<path d="M169.47 333C169.319 333.048 169.161 333.073 169.002 333.072C168.55 333.072 168.117 332.893 167.797 332.573C167.477 332.253 167.298 331.82 167.298 331.368C167.298 330.916 167.477 330.483 167.797 330.163C168.117 329.844 168.55 329.664 169.002 329.664C169.161 329.664 169.319 329.688 169.47 329.736C169.112 329.834 168.796 330.047 168.571 330.342C168.346 330.636 168.224 330.997 168.224 331.368C168.224 331.739 168.346 332.1 168.571 332.395C168.796 332.689 169.112 332.902 169.47 333Z" fill="#F5EAE4"/>
<path d="M350.878 288.76C353.996 288.474 356.293 285.715 356.007 282.597C355.722 279.478 352.962 277.182 349.844 277.467L332.259 279.077C329.141 279.362 326.844 282.121 327.13 285.24C327.415 288.358 330.175 290.655 333.293 290.369L350.878 288.76Z" fill="#EA8681"/>
<path d="M352.062 299.071C358.232 299.071 363.234 294.069 363.234 287.899C363.234 281.728 358.232 276.727 352.062 276.727C345.892 276.727 340.89 281.728 340.89 287.899C340.89 294.069 345.892 299.071 352.062 299.071Z" fill="#EA8681"/>
<path d="M342.35 292.344L342.35 292.35C342.263 301.088 349.276 308.241 358.014 308.328L426.057 309.005C434.795 309.092 441.948 302.079 442.035 293.341L442.035 293.335C442.122 284.598 435.109 277.444 426.372 277.357L358.329 276.68C349.591 276.593 342.437 283.606 342.35 292.344Z" fill="#EF948C"/>
<path d="M365.545 304.925C372.352 299.573 373.531 289.718 368.18 282.913C362.829 276.107 352.973 274.93 346.167 280.282L335.39 288.757C328.583 294.109 327.404 303.964 332.755 310.769C338.106 317.574 347.962 318.752 354.768 313.4L365.545 304.925Z" fill="#EF948C"/>
<path d="M350.795 291.063C353.257 289.128 353.683 285.563 351.747 283.102C349.812 280.64 346.247 280.214 343.786 282.149L318.831 301.773C316.369 303.708 315.943 307.273 317.879 309.734C319.814 312.196 323.379 312.622 325.841 310.687L350.795 291.063Z" fill="#EF948C"/>
<path d="M350.878 288.758C353.996 288.472 356.293 285.713 356.008 282.595C355.722 279.476 352.963 277.18 349.844 277.465L332.26 279.075C329.141 279.36 326.845 282.12 327.13 285.238C327.416 288.356 330.175 290.653 333.293 290.367L350.878 288.758Z" fill="#EF948C"/>
<path d="M352.063 299.069C358.233 299.069 363.235 294.067 363.235 287.897C363.235 281.726 358.233 276.725 352.063 276.725C345.893 276.725 340.891 281.726 340.891 287.897C340.891 294.067 345.893 299.069 352.063 299.069Z" fill="#EF948C"/>
<path d="M342.35 292.344L342.35 292.35C342.263 301.088 349.276 308.241 358.014 308.328L426.057 309.005C434.795 309.092 441.948 302.079 442.035 293.341L442.035 293.335C442.122 284.598 435.109 277.444 426.372 277.357L358.329 276.68C349.591 276.593 342.437 283.606 342.35 292.344Z" fill="#EF948C"/>
<path d="M365.545 304.925C372.352 299.573 373.531 289.718 368.18 282.913C362.829 276.107 352.973 274.93 346.167 280.282L335.39 288.757C328.583 294.109 327.404 303.964 332.755 310.769C338.106 317.574 347.962 318.752 354.768 313.4L365.545 304.925Z" fill="#EF948C"/>
<path d="M331.23 306.804C333.8 310.073 337.563 312.186 341.691 312.68C345.82 313.174 349.975 312.008 353.244 309.438L355.044 308.016L359.652 304.416L366.144 304.476L424.452 305.076C428.649 305.118 432.69 303.491 435.688 300.553C438.685 297.615 440.393 293.607 440.436 289.41V289.2C440.437 287.918 440.279 286.64 439.968 285.396C441.309 287.764 442.012 290.439 442.008 293.16V293.322C441.989 295.4 441.561 297.454 440.748 299.366C439.936 301.279 438.754 303.012 437.272 304.468C435.789 305.924 434.034 307.074 432.108 307.851C430.181 308.629 428.119 309.019 426.042 309L361.242 308.364L354.822 313.41C352.761 315.028 350.329 316.105 347.745 316.541C345.162 316.977 342.511 316.759 340.034 315.907C337.556 315.055 335.332 313.596 333.564 311.663C331.795 309.73 330.539 307.385 329.91 304.842C330.3 305.529 330.741 306.184 331.23 306.804Z" fill="#F3A6A0"/>
<path d="M350.795 291.064C353.256 289.129 353.683 285.564 351.747 283.103C349.811 280.641 346.247 280.215 343.785 282.15L318.831 301.774C316.369 303.709 315.943 307.274 317.878 309.735C319.814 312.197 323.379 312.623 325.84 310.688L350.795 291.064Z" fill="#EF948C"/>
<path d="M357.608 300.11C359.757 298.421 360.13 295.309 358.44 293.16C356.75 291.011 353.638 290.638 351.489 292.328L344.244 298.025C342.095 299.715 341.723 302.827 343.413 304.976C345.103 307.125 348.215 307.497 350.364 305.807L357.608 300.11Z" fill="#F3A6A0"/>
<path d="M313.386 178.368C322.529 178.368 329.94 170.956 329.94 161.814C329.94 152.671 322.529 145.26 313.386 145.26C304.244 145.26 296.832 152.671 296.832 161.814C296.832 170.956 304.244 178.368 313.386 178.368Z" stroke="white" stroke-width="2.85" stroke-miterlimit="10"/>
<path d="M352.446 178.368C361.589 178.368 369 170.956 369 161.814C369 152.671 361.589 145.26 352.446 145.26C343.304 145.26 335.892 152.671 335.892 161.814C335.892 170.956 343.304 178.368 352.446 178.368Z" stroke="white" stroke-width="2.85" stroke-miterlimit="10"/>
<path d="M329.928 162.462H335.904" stroke="white" stroke-width="2.85" stroke-miterlimit="10"/>
<path d="M176.826 486.048L222.672 504.426L227.85 491.004L183.03 464.316L176.844 480.318L176.826 486.048Z" fill="#141334"/>
<path d="M243.774 303.018H234.39V301.218C234.39 300.4 234.715 299.615 235.293 299.037C235.871 298.459 236.656 298.134 237.474 298.134H240.696C241.514 298.134 242.298 298.459 242.877 299.037C243.455 299.615 243.78 300.4 243.78 301.218V303.018H243.774Z" fill="#ABB2D8"/>
<path d="M253.158 303.018H243.774V301.218C243.779 300.404 244.105 299.625 244.682 299.051C245.258 298.477 246.038 298.154 246.852 298.152H250.074C250.892 298.152 251.677 298.477 252.255 299.055C252.833 299.634 253.158 300.418 253.158 301.236V303.036V303.018Z" fill="#ABB2D8"/>
<path d="M262.548 303.018H253.164V301.218C253.164 300.4 253.489 299.615 254.067 299.037C254.646 298.459 255.43 298.134 256.248 298.134H259.47C260.288 298.134 261.073 298.459 261.651 299.037C262.229 299.615 262.554 300.4 262.554 301.218V303.018H262.548Z" fill="#ABB2D8"/>
<path d="M271.932 303.018H262.548V301.218C262.548 300.4 262.873 299.615 263.451 299.037C264.03 298.459 264.814 298.134 265.632 298.134H268.854C269.672 298.134 270.456 298.459 271.035 299.037C271.613 299.615 271.938 300.4 271.938 301.218V303.018H271.932Z" fill="#ABB2D8"/>
<path d="M281.316 303.018H271.932V301.218C271.932 300.4 272.257 299.615 272.835 299.037C273.413 298.459 274.198 298.134 275.016 298.134H278.238C279.056 298.134 279.84 298.459 280.418 299.037C280.997 299.615 281.322 300.4 281.322 301.218V303.018H281.316Z" fill="#ABB2D8"/>
<path d="M290.706 303.018H281.322V301.218C281.322 300.4 281.647 299.615 282.225 299.037C282.804 298.459 283.588 298.134 284.406 298.134H287.622C288.44 298.134 289.224 298.459 289.803 299.037C290.381 299.615 290.706 300.4 290.706 301.218V303.018Z" fill="#ABB2D8"/>
<path d="M300.084 303.018H290.7V301.218C290.704 300.402 291.032 299.622 291.611 299.047C292.191 298.472 292.974 298.151 293.79 298.152H297.012C297.83 298.152 298.614 298.477 299.192 299.055C299.771 299.634 300.096 300.418 300.096 301.236V303.036L300.084 303.018Z" fill="#ABB2D8"/>
<path d="M209.262 308.016H308.742C310.853 308.016 312.564 306.304 312.564 304.194V304.188C312.564 302.077 310.853 300.366 308.742 300.366H209.262C207.151 300.366 205.44 302.077 205.44 304.188V304.194C205.44 306.304 207.151 308.016 209.262 308.016Z" fill="#5D6295"/>
<path d="M234.948 308.016H145.548C143.727 308.016 141.958 307.408 140.523 306.289C139.087 305.169 138.066 303.602 137.622 301.836L120.222 232.62C119.919 231.414 119.895 230.155 120.152 228.938C120.409 227.721 120.94 226.579 121.705 225.599C122.47 224.618 123.448 223.825 124.566 223.279C125.683 222.734 126.91 222.45 128.154 222.45H207.042C208.863 222.45 210.631 223.058 212.067 224.178C213.503 225.297 214.524 226.864 214.968 228.63L234.948 308.016Z" fill="#666DA2"/>
<path d="M120.216 232.62L137.616 301.836C138.062 303.602 139.084 305.169 140.52 306.29C141.957 307.41 143.726 308.02 145.548 308.022H234.948L233.022 300.372H162.402C160.58 300.371 158.81 299.762 157.373 298.641C155.937 297.521 154.915 295.953 154.47 294.186L137.052 225C136.845 224.175 136.766 223.323 136.818 222.474H128.148C126.907 222.474 125.682 222.758 124.567 223.302C123.452 223.846 122.475 224.637 121.711 225.615C120.946 226.592 120.415 227.731 120.156 228.945C119.897 230.158 119.917 231.415 120.216 232.62Z" fill="#5D6295"/>
<path d="M171.984 271.998C174.456 271.998 176.46 269.994 176.46 267.522C176.46 265.05 174.456 263.046 171.984 263.046C169.512 263.046 167.508 265.05 167.508 267.522C167.508 269.994 169.512 271.998 171.984 271.998Z" fill="#ABB2D8"/>
<path d="M165.996 274.2C166.702 275.304 167.648 276.236 168.762 276.927C169.876 277.618 171.131 278.05 172.434 278.191C173.738 278.333 175.056 278.18 176.293 277.745C177.529 277.309 178.652 276.602 179.579 275.675C180.506 274.748 181.213 273.625 181.649 272.388C182.084 271.152 182.237 269.833 182.095 268.53C181.954 267.227 181.522 265.972 180.831 264.857C180.14 263.743 179.208 262.798 178.104 262.092C179.174 263.775 179.638 265.773 179.419 267.756C179.201 269.739 178.313 271.588 176.903 272.998C175.492 274.409 173.643 275.296 171.66 275.515C169.678 275.733 167.68 275.269 165.996 274.2Z" fill="#ABB2D8"/>
<path d="M346.878 507.397H398.31L403.554 494.179L337.518 483.811L346.878 507.397Z" fill="#332D52"/>
<path d="M394.038 505.099C395.811 505.099 397.248 503.662 397.248 501.889C397.248 500.116 395.811 498.679 394.038 498.679C392.265 498.679 390.828 500.116 390.828 501.889C390.828 503.662 392.265 505.099 394.038 505.099Z" fill="#141334"/>
<path d="M394.224 505.098C395.517 505.098 396.564 504.05 396.564 502.758C396.564 501.466 395.517 500.418 394.224 500.418C392.932 500.418 391.884 501.466 391.884 502.758C391.884 504.05 392.932 505.098 394.224 505.098Z" fill="#666DA2"/>
<path d="M394.2 504.287C394.304 504.296 394.408 504.296 394.512 504.287C394.91 504.262 395.283 504.087 395.556 503.797C395.829 503.506 395.981 503.123 395.981 502.724C395.981 502.326 395.829 501.942 395.556 501.652C395.283 501.361 394.91 501.186 394.512 501.161C394.407 501.161 394.302 501.173 394.2 501.197C394.549 501.273 394.861 501.467 395.086 501.745C395.31 502.023 395.432 502.37 395.432 502.727C395.432 503.084 395.31 503.431 395.086 503.709C394.861 503.988 394.549 504.181 394.2 504.257V504.287Z" fill="#332D52"/>
<path d="M394.584 500.802C394.452 500.772 394.317 500.758 394.182 500.76C393.672 500.788 393.192 501.01 392.841 501.381C392.489 501.752 392.293 502.244 392.293 502.755C392.293 503.266 392.489 503.757 392.841 504.128C393.192 504.5 393.672 504.722 394.182 504.75C394.317 504.751 394.452 504.737 394.584 504.708C394.138 504.612 393.738 504.365 393.451 504.01C393.164 503.654 393.008 503.212 393.008 502.755C393.008 502.298 393.164 501.855 393.451 501.5C393.738 501.145 394.138 500.898 394.584 500.802Z" fill="#9DA5D1"/>
<path d="M172.986 489.175L220.722 508.309L230.508 497.995L173.07 463.801L172.986 489.175Z" fill="#262344"/>
<path d="M219.06 502.884C220.833 502.884 222.27 501.447 222.27 499.674C222.27 497.901 220.833 496.464 219.06 496.464C217.287 496.464 215.85 497.901 215.85 499.674C215.85 501.447 217.287 502.884 219.06 502.884Z" fill="#141334"/>
<path d="M219.246 502.884C220.538 502.884 221.586 501.836 221.586 500.544C221.586 499.252 220.538 498.204 219.246 498.204C217.953 498.204 216.906 499.252 216.906 500.544C216.906 501.836 217.953 502.884 219.246 502.884Z" fill="#666DA2"/>
<path d="M219.246 502.068C219.348 502.093 219.453 502.105 219.558 502.104C219.956 502.08 220.329 501.904 220.602 501.614C220.875 501.324 221.027 500.94 221.027 500.541C221.027 500.143 220.875 499.759 220.602 499.469C220.329 499.179 219.956 499.003 219.558 498.978C219.454 498.969 219.35 498.969 219.246 498.978C219.595 499.055 219.908 499.248 220.132 499.526C220.356 499.805 220.478 500.151 220.478 500.508C220.478 500.866 220.356 501.212 220.132 501.491C219.908 501.769 219.595 501.962 219.246 502.038V502.068Z" fill="#332D52"/>
<path d="M219.6 498.6C219.468 498.57 219.333 498.556 219.198 498.558C218.688 498.586 218.208 498.808 217.857 499.179C217.505 499.55 217.31 500.042 217.31 500.553C217.31 501.064 217.505 501.555 217.857 501.926C218.208 502.297 218.688 502.52 219.198 502.548C219.333 502.549 219.468 502.535 219.6 502.506C219.154 502.409 218.754 502.163 218.467 501.808C218.18 501.452 218.024 501.009 218.024 500.553C218.024 500.096 218.18 499.653 218.467 499.298C218.754 498.942 219.154 498.696 219.6 498.6Z" fill="#9DA5D1"/>
<defs>
<linearGradient id="paint0_linear_274_5569" x1="2.23193" y1="294.612" x2="597.792" y2="294.612" gradientUnits="userSpaceOnUse">
<stop stop-color="#0C0C1D" stop-opacity="0.46"/>
<stop offset="1" stop-color="#111132" stop-opacity="0.8"/>
</linearGradient>
</defs>
</svg>
