<svg width="31" height="22" viewBox="0 0 31 22" fill="none" xmlns="http://www.w3.org/2000/svg">
<path d="M26.998 3H4.00195C3.91766 3 3.8337 2.98934 3.75207 2.96828C2.75191 2.71017 2.75191 1.28983 3.75207 1.03172C3.8337 1.01066 3.91766 1 4.00195 1H26.998C27.0823 1 27.1663 1.01066 27.2479 1.03172C28.2481 1.28983 28.2481 2.71017 27.2479 2.96828C27.1663 2.98934 27.0823 3 26.998 3Z" fill="black" stroke="black"/>
<path d="M26.998 12H4.00195C3.91766 12 3.8337 11.9893 3.75207 11.9683C2.75191 11.7102 2.75191 10.2898 3.75207 10.0317C3.8337 10.0107 3.91766 10 4.00195 10H26.998C27.0823 10 27.1663 10.0107 27.2479 10.0317C28.2481 10.2898 28.2481 11.7102 27.2479 11.9683C27.1663 11.9893 27.0823 12 26.998 12Z" fill="black" stroke="black"/>
<path d="M26.998 21H4.00195C3.91766 21 3.8337 20.9893 3.75207 20.9683C2.75191 20.7102 2.75191 19.2898 3.75207 19.0317C3.8337 19.0107 3.91766 19 4.00195 19H26.998C27.0823 19 27.1663 19.0107 27.2479 19.0317C28.2481 19.2898 28.2481 20.7102 27.2479 20.9683C27.1663 20.9893 27.0823 21 26.998 21Z" fill="black" stroke="black"/>
</svg>
