<svg width="16" height="24" viewBox="0 0 16 24" fill="none" xmlns="http://www.w3.org/2000/svg">
<path d="M7.64645 21.0967C7.84171 21.292 8.15829 21.292 8.35355 21.0967L11.5355 17.9147C11.7308 17.7195 11.7308 17.4029 11.5355 17.2076C11.3403 17.0124 11.0237 17.0124 10.8284 17.2076L8 20.0361L5.17157 17.2076C4.97631 17.0124 4.65973 17.0124 4.46447 17.2076C4.2692 17.4029 4.2692 17.7195 4.46447 17.9147L7.64645 21.0967ZM8.5 16.8832C8.5 16.607 8.27614 16.3832 8 16.3832C7.72386 16.3832 7.5 16.607 7.5 16.8832L8.5 16.8832ZM8.5 20.7432L8.5 16.8832L7.5 16.8832L7.5 20.7432L8.5 20.7432Z" fill="white"/>
<rect x="0.5" y="0.5" width="15" height="23" rx="5.5" stroke="white"/>
<path d="M8 13.1284L8 13.5584" stroke="white" stroke-linecap="round" stroke-linejoin="round"/>
<path d="M9.6 5.19795C9.6 6.05399 8.90604 6.74795 8.05 6.74795C7.19396 6.74795 6.5 6.05399 6.5 5.19795C6.5 4.34191 7.19396 3.64795 8.05 3.64795C8.90604 3.64795 9.6 4.34191 9.6 5.19795Z" stroke="white"/>
</svg>
